<?xml version="1.0" encoding="UTF-8" standalone="no"?>
<!-- Created with Inkscape (http://www.inkscape.org/) -->

<svg
   xmlns:dc="http://purl.org/dc/elements/1.1/"
   xmlns:cc="http://creativecommons.org/ns#"
   xmlns:rdf="http://www.w3.org/1999/02/22-rdf-syntax-ns#"
   xmlns:svg="http://www.w3.org/2000/svg"
   xmlns="http://www.w3.org/2000/svg"
   xmlns:sodipodi="http://sodipodi.sourceforge.net/DTD/sodipodi-0.dtd"
   xmlns:inkscape="http://www.inkscape.org/namespaces/inkscape"
   width="6997.2427mm"
   height="7042.6128mm"
   viewBox="0 0 6997.243 7042.6125"
   version="1.1"
   id="svg8"
   inkscape:version="0.92.4 (5da689c313, 2019-01-14)"
   sodipodi:docname="logo.svg">
  <defs
     id="defs2">
    <filter
       inkscape:collect="always"
       style="color-interpolation-filters:sRGB"
       id="filter1225"
       x="-0.046307321"
       width="1.0926146"
       y="-0.049821119"
       height="1.0996422">
      <feGaussianBlur
         inkscape:collect="always"
         stdDeviation="458.15985"
         id="feGaussianBlur1227" />
    </filter>
  </defs>
  <sodipodi:namedview
     id="base"
     pagecolor="#ffffff"
     bordercolor="#666666"
     borderopacity="1.0"
     inkscape:pageopacity="0.0"
     inkscape:pageshadow="2"
     inkscape:zoom="0.01"
     inkscape:cx="35066.755"
     inkscape:cy="20241.959"
     inkscape:document-units="mm"
     inkscape:current-layer="layer1"
     showgrid="false"
     inkscape:window-width="1360"
     inkscape:window-height="745"
     inkscape:window-x="-8"
     inkscape:window-y="-8"
     inkscape:window-maximized="1"
     units="mm"
     fit-margin-top="0"
     fit-margin-left="0"
     fit-margin-right="0"
     fit-margin-bottom="0" />
  <metadata
     id="metadata5">
    <rdf:RDF>
      <cc:Work
         rdf:about="">
        <dc:format>image/svg+xml</dc:format>
        <dc:type
           rdf:resource="http://purl.org/dc/dcmitype/StillImage" />
        <dc:title></dc:title>
      </cc:Work>
    </rdf:RDF>
  </metadata>
  <g
     inkscape:label="Camada 1"
     inkscape:groupmode="layer"
     id="layer1"
     transform="matrix(34.43203,0,0,34.43203,6274.7829,-2311.3271)">
    <flowRoot
       xml:space="preserve"
       id="flowRoot4518"
       style="font-style:normal;font-variant:normal;font-weight:bold;font-stretch:normal;font-size:40px;line-height:49.54999924;font-family:sans-serif;-inkscape-font-specification:'sans-serif Bold';letter-spacing:0px;word-spacing:0px;fill:#000000;fill-opacity:1;stroke:none"
       transform="scale(0.26458333)"><flowRegion
         id="flowRegion4520"
         style="line-height:49.54999924"><rect
           id="rect4522"
           width="871.42859"
           height="574.28571"
           x="-948.57141"
           y="425.37683"
           style="line-height:49.54999924" /></flowRegion><flowPara
         id="flowPara4524">aaaaa</flowPara></flowRoot>    <flowRoot
       xml:space="preserve"
       id="flowRoot4530"
       style="font-style:normal;font-variant:normal;font-weight:bold;font-stretch:normal;font-size:40px;line-height:8.25;font-family:sans-serif;-inkscape-font-specification:'sans-serif Bold';letter-spacing:0px;word-spacing:0px;fill:#000000;fill-opacity:1;stroke:none"><flowRegion
         id="flowRegion4532"><rect
           id="rect4534"
           width="48.57143"
           height="42.857143"
           x="-640"
           y="565.37683" /></flowRegion><flowPara
         id="flowPara4536" /></flowRoot>    <circle
       style="opacity:1;fill:#0081af;fill-opacity:1;fill-rule:evenodd;stroke:none;stroke-width:0;stroke-miterlimit:4;stroke-dasharray:none;stroke-opacity:1"
       id="path1219"
       cx="-80.036713"
       cy="168.31113"
       r="101.43171" />
    <path
       style="opacity:1;fill:#005979;fill-opacity:1;fill-rule:evenodd;stroke:#6b351d;stroke-width:0;stroke-miterlimit:4;stroke-dasharray:none;stroke-opacity:1;filter:url(#filter1225)"
       d="M 12747.371 4357.5918 A 13916.974 9852.1242 52.427181 0 0 11675.537 4418.6133 A 13916.974 9852.1242 52.427181 0 0 10651.41 4604.5215 A 13916.974 9852.1242 52.427181 0 0 9685.2188 4913.4609 A 13916.974 9852.1242 52.427181 0 0 8786.6191 5342.3438 A 13916.974 9852.1242 52.427181 0 0 7964.5898 5886.8828 A 13916.974 9852.1242 52.427181 0 0 7227.3438 6541.6387 A 13916.974 9852.1242 52.427181 0 0 6760.7148 7068.2891 A 13916.974 9852.1242 52.427181 0 0 6184.8125 7895.5938 A 13916.974 9852.1242 52.427181 0 0 5711.4746 8813.0449 A 13916.974 9852.1242 52.427181 0 0 5345.4316 9811.4766 A 13916.974 9852.1242 52.427181 0 0 5090.3438 10880.912 A 13916.974 9852.1242 52.427181 0 0 4948.7598 12010.664 A 13916.974 9852.1242 52.427181 0 0 4922.0879 13189.447 A 13916.974 9852.1242 52.427181 0 0 5010.6016 14405.482 A 13916.974 9852.1242 52.427181 0 0 5213.4121 15646.619 A 13916.974 9852.1242 52.427181 0 0 5528.4961 16900.455 A 13916.974 9852.1242 52.427181 0 0 5952.7012 18154.463 A 13916.972 9852.1227 52.427181 0 1 5678.7988 17344.775 L 3215.3516 19433.797 C 3202.5103 19441.561 3189.8279 19449.556 3177.3086 19457.781 C 3164.7893 19466.006 3152.432 19474.46 3140.2441 19483.139 C 3128.0563 19491.817 3116.0364 19500.722 3104.1895 19509.848 C 3092.3425 19518.973 3080.6685 19528.321 3069.1719 19537.887 C 3060.0161 19545.651 3051.0029 19553.527 3042.1309 19561.514 C 3033.2588 19569.5 3024.5277 19577.596 3015.9395 19585.799 C 3007.3512 19594.001 2998.906 19602.309 2990.6016 19610.723 C 2982.2971 19619.136 2974.1339 19627.653 2966.1133 19636.271 C 2958.0927 19644.89 2950.2133 19653.612 2942.4766 19662.43 C 2934.7398 19671.248 2927.1462 19680.164 2919.6934 19689.176 C 2912.2405 19698.188 2904.9287 19707.294 2897.7598 19716.494 C 2890.5908 19725.694 2883.5646 19734.988 2876.6797 19744.371 C 2869.7947 19753.754 2863.0522 19763.227 2856.4512 19772.787 C 2849.8502 19782.347 2843.3912 19791.995 2837.0742 19801.727 C 2830.7572 19811.459 2824.5818 19821.278 2818.5488 19831.176 C 2812.5159 19841.074 2806.6258 19851.051 2800.877 19861.109 C 2795.1281 19871.168 2789.5195 19881.307 2784.0547 19891.52 C 2778.5899 19901.734 2773.2685 19912.022 2768.0879 19922.385 C 2762.9072 19932.747 2757.8691 19943.182 2752.9727 19953.688 C 2748.0762 19964.193 2743.3213 19974.77 2738.709 19985.414 C 2734.0967 19996.058 2729.6269 20006.772 2725.2988 20017.549 C 2720.9707 20028.325 2716.7841 20039.165 2712.7402 20050.068 C 2708.6964 20060.972 2704.7947 20071.938 2701.0352 20082.963 C 2697.2756 20093.987 2693.6569 20105.071 2690.1816 20116.211 C 2686.7063 20127.351 2683.3746 20138.547 2680.1836 20149.797 C 2676.9926 20161.047 2673.9437 20172.35 2671.0371 20183.705 C 2668.1305 20195.06 2665.3664 20206.466 2662.7441 20217.92 C 2660.1219 20229.373 2657.6406 20240.875 2655.3027 20252.422 C 2652.9649 20263.968 2650.7702 20275.557 2648.7168 20287.191 C 2646.6634 20298.826 2644.7513 20310.504 2642.9824 20322.221 C 2641.2135 20333.937 2639.5879 20345.692 2638.1035 20357.484 C 2636.6191 20369.277 2635.2761 20381.109 2634.0762 20392.973 C 2632.8763 20404.836 2631.8196 20416.731 2630.9043 20428.66 C 2629.9889 20440.589 2629.2148 20452.549 2628.584 20464.537 C 2627.9532 20476.526 2627.4653 20488.545 2627.1191 20500.588 C 2626.773 20512.63 2626.5693 20524.696 2626.5078 20536.787 C 2626.4463 20548.878 2626.5269 20560.995 2626.75 20573.129 C 2626.9731 20585.263 2627.3379 20597.413 2627.8457 20609.584 C 2628.3535 20621.755 2629.0043 20633.944 2629.7969 20646.146 C 2630.5894 20658.349 2631.5243 20670.57 2632.6016 20682.799 C 2633.6789 20695.028 2634.8996 20707.266 2636.2617 20719.516 C 2637.6238 20731.765 2639.1265 20744.023 2640.7734 20756.287 C 2642.4203 20768.551 2644.2108 20780.822 2646.1426 20793.096 C 2648.0743 20805.369 2650.1486 20817.647 2652.3652 20829.924 C 2654.5818 20842.201 2656.9399 20854.477 2659.4414 20866.752 C 2661.9429 20879.027 2664.5866 20891.299 2667.373 20903.566 C 2670.1595 20915.834 2673.0888 20928.098 2676.1602 20940.352 C 2679.2315 20952.607 2682.4464 20964.854 2685.8027 20977.09 C 2689.1591 20989.326 2692.6575 21001.552 2696.2988 21013.764 C 2699.9402 21025.975 2703.724 21038.171 2707.6504 21050.352 C 2711.5768 21062.534 2715.646 21074.702 2719.8574 21086.848 C 2724.0689 21098.994 2728.4214 21111.12 2732.918 21123.225 C 2737.4145 21135.33 2742.0543 21147.412 2746.8359 21159.471 C 2751.6176 21171.529 2756.5426 21183.562 2761.6094 21195.568 C 2766.6762 21207.574 2771.8843 21219.552 2777.2363 21231.5 C 2782.5883 21243.448 2788.0835 21255.365 2793.7207 21267.25 C 2799.3579 21279.135 2805.1381 21290.989 2811.0605 21302.805 C 2815.758 21312.176 2820.6153 21321.505 2825.4922 21330.83 A 13205.076 13205.076 0 0 0 12071.244 26370.566 A 13916.974 9852.1242 52.427181 0 0 12071.25 26370.57 A 13205.078 13205.078 0 0 0 13223.135 26428.213 A 13205.078 13205.078 0 0 0 26371.84 14349.65 A 13916.974 9852.1242 52.427181 0 0 25789.506 13222.488 A 13916.974 9852.1242 52.427181 0 0 25067.496 12042.52 A 13916.974 9852.1242 52.427181 0 0 24259.383 10911.264 A 13916.974 9852.1242 52.427181 0 0 23373.242 9840.0215 A 13916.974 9852.1242 52.427181 0 0 22703.514 9123.7754 A 13916.974 9852.1242 52.427181 0 0 21704.957 8179.4062 A 13916.974 9852.1242 52.427181 0 0 20653.896 7322.3496 A 13916.974 9852.1242 52.427181 0 0 19560.83 6561.168 A 13916.974 9852.1242 52.427181 0 0 18436.686 5903.4648 A 13916.974 9852.1242 52.427181 0 0 17292.686 5355.8125 A 13916.974 9852.1242 52.427181 0 0 16140.268 4923.6816 A 13916.974 9852.1242 52.427181 0 0 14990.945 4611.3945 A 13916.974 9852.1242 52.427181 0 0 13856.199 4422.0664 A 13916.974 9852.1242 52.427181 0 0 12747.371 4357.5918 z M 6481.7969 19396.117 A 13916.974 9852.1242 52.427181 0 0 7110.4902 20613.01 A 13916.972 9852.1227 52.427181 0 1 7110.4883 20613.008 A 13916.972 9852.1227 52.427181 0 1 6481.7969 19396.117 z "
       transform="matrix(0.00768422,0,0,0.00768422,-182.2368,67.127239)"
       id="path935" />
    <path
       style="opacity:1;fill:#ffffff;fill-opacity:1;fill-rule:evenodd;stroke:#6b351d;stroke-width:0.19911814;stroke-miterlimit:4;stroke-dasharray:none;stroke-opacity:1"
       d="m -136.2717,198.43427 -21.25754,18.02658 a 12.476346,10.68966 49.701765 0 0 -1.12327,0.79985 12.476346,10.68966 49.701765 0 0 -0.0836,16.42929 12.476346,10.68966 49.701765 0 0 16.22215,2.60184 12.476346,10.68966 49.701765 0 0 0.96028,-0.96707 l 21.26987,-18.03704 z"
       id="rect876"
       inkscape:connector-curvature="0" />
    <circle
       style="opacity:1;fill:#ffffff;fill-opacity:1;fill-rule:evenodd;stroke:#6b351d;stroke-width:0.19355302;stroke-miterlimit:4;stroke-dasharray:none;stroke-opacity:1"
       id="path844-9"
       cx="-83.188141"
       cy="169.70461"
       r="70.775841" />
    <circle
       style="opacity:1;fill:#000000;fill-opacity:1;fill-rule:evenodd;stroke:#6b351d;stroke-width:0.13584022;stroke-miterlimit:4;stroke-dasharray:none;stroke-opacity:1"
       id="path844-9-4"
       cx="-83.188141"
       cy="169.85208"
       r="49.673084" />
    <path
       style="opacity:1;fill:#e1e5ea;fill-opacity:1;fill-rule:evenodd;stroke:none;stroke-width:0.19796157;stroke-miterlimit:4;stroke-dasharray:none;stroke-opacity:1"
       d="m -93.241717,134.23018 c -0.88267,0.005 -1.76481,0.0576 -2.643163,0.14322 -1.311702,0.128 -2.615201,0.33997 -3.900422,0.63163 -1.352418,0.3063 -2.684908,0.70093 -3.985968,1.18061 -1.0173,0.37421 -2.01537,0.8006 -2.98938,1.27609 -1.22371,0.59805 -2.40777,1.27658 -3.54461,2.02678 -0.95678,0.63457 -1.87885,1.32127 -2.75848,2.05914 -0.66452,0.5546 -1.30382,1.14127 -1.88468,1.78365 -0.9557,1.05273 -1.77268,2.24042 -2.3469,3.54387 -0.17497,0.38562 -0.31284,0.78622 -0.45867,1.1833 -0.57204,1.59281 -0.93724,3.25755 -1.11619,4.93966 -0.11683,1.08718 -0.15702,2.18246 -0.12694,3.27537 0.0332,1.20422 0.14754,2.40648 0.34381,3.59498 0.26042,1.21206 0.69111,2.38762 1.27596,3.48065 0.52246,0.98389 1.1717,1.9013 1.93466,2.71352 0.83464,0.88398 1.81054,1.64103 2.89948,2.18576 0.80185,0.403 1.6636,0.68574 2.54817,0.83758 1.15431,0.22382 2.34382,0.25275 3.50978,0.10571 1.27991,-0.16189 2.53413,-0.53772 3.68615,-1.1197 1.0931,-0.5535 2.09351,-1.29893 2.907759,-2.21675 0.456752,-0.51675 0.859598,-1.0837 1.178527,-1.69571 0.400394,-0.95794 0.602939,-1.98797 0.685943,-3.01978 0.08307,-1.01086 0.06138,-2.02658 0.0322,-3.03934 -0.03968,-1.42779 -0.102388,-2.86485 0.09327,-4.28459 0.138548,-1.02596 0.4295,-2.03826 0.92196,-2.95224 0.402705,-0.75085 0.875801,-1.46404 1.418665,-2.1209 0.726946,-0.88987 1.561376,-1.68663 2.435946,-2.42989 1.1163,-0.9485 2.29966,-1.81332 3.46003,-2.70627 0.79097,-0.60706 1.57365,-1.2268 2.3132,-1.89613 0.45021,-0.40572 0.88839,-0.82625 1.29491,-1.27581 0.47041,-0.56676 0.69664,-1.31374 0.67631,-2.04525 -0.02375,-0.99216 -0.45495,-1.97474 -1.19,-2.64519 -0.35924,-0.32947 -0.79708,-0.5718 -1.26683,-0.70119 -0.77201,-0.36397 -1.6089,-0.57228 -2.45268,-0.6836 -0.97807,-0.12676 -1.9671,-0.13643 -2.95182,-0.12918 z"
       id="path896"
       inkscape:connector-curvature="0"
       sodipodi:nodetypes="ccccccccccccccccccccccccccccccccccccccccccccccccccccccccccccc" />
  </g>
</svg>
